<svg xmlns="http://www.w3.org/2000/svg" viewBox="-10 -10 1210 790" width="1210" height="790" font-family="Virgil, Segoe UI Emoji, sans-serif">
<defs>
  <marker id="arrowhead-end" markerWidth="10" markerHeight="10" refX="9" refY="3" orient="auto" markerUnits="strokeWidth">
    <path d="M0,0 L0,6 L9,3 z" fill="#1e1e1e"/>
  </marker>
  <marker id="arrowhead-start" markerWidth="10" markerHeight="10" refX="1" refY="3" orient="auto" markerUnits="strokeWidth">
    <path d="M9,0 L9,6 L0,3 z" fill="#1e1e1e"/>
  </marker>
</defs>
<rect x="-10" y="-10" width="1210" height="790" fill="#ffffff"/>
<text x="280" y="44" text-anchor="start" font-size="24" fill="#1e1e1e" font-weight="600" opacity="1.0">Flow Sistem — Website Sertifikat Online FIK UI</text>
<text x="100" y="98" text-anchor="start" font-size="18" fill="#1971c2" font-weight="600" opacity="1.0">PENGAJU</text>
<text x="400" y="98" text-anchor="start" font-size="18" fill="#2f9e44" font-weight="600" opacity="1.0">SISTEM</text>
<text x="700" y="98" text-anchor="start" font-size="18" fill="#e8590c" font-weight="600" opacity="1.0">ADMIN</text>
<text x="1000" y="98" text-anchor="start" font-size="18" fill="#7048e8" font-weight="600" opacity="1.0">PESERTA / PUBLIK</text>
<rect x="20" y="130" width="220" height="70" rx="8" ry="8" fill="#a5d8ff" stroke="#1971c2" stroke-width="2"  opacity="1.0"/>
<text x="130.0" y="170.25" text-anchor="middle" font-size="14" fill="#1e1e1e" opacity="1.0"><tspan x="130.0" y="170.25">1. Buka Form Pengajuan</tspan></text>
<rect x="20" y="230" width="220" height="70" rx="8" ry="8" fill="#a5d8ff" stroke="#1971c2" stroke-width="2"  opacity="1.0"/>
<text x="130.0" y="270.25" text-anchor="middle" font-size="14" fill="#1e1e1e" opacity="1.0"><tspan x="130.0" y="270.25">2. Isi 4 Seksi Form</tspan></text>
<rect x="20" y="330" width="220" height="70" rx="8" ry="8" fill="#a5d8ff" stroke="#1971c2" stroke-width="2"  opacity="1.0"/>
<text x="130.0" y="370.25" text-anchor="middle" font-size="14" fill="#1e1e1e" opacity="1.0"><tspan x="130.0" y="370.25">3. Submit Pengajuan</tspan></text>
<rect x="330" y="130" width="200" height="70" rx="8" ry="8" fill="#b2f2bb" stroke="#1971c2" stroke-width="2"  opacity="1.0"/>
<text x="430.0" y="170.25" text-anchor="middle" font-size="14" fill="#1e1e1e" opacity="1.0"><tspan x="430.0" y="170.25">4. Validasi + DB</tspan></text>
<rect x="330" y="230" width="200" height="70" rx="8" ry="8" fill="#b2f2bb" stroke="#1971c2" stroke-width="2"  opacity="1.0"/>
<text x="430.0" y="270.25" text-anchor="middle" font-size="14" fill="#1e1e1e" opacity="1.0"><tspan x="430.0" y="270.25">5. Email Notif Admin</tspan></text>
<rect x="330" y="480" width="200" height="70" rx="8" ry="8" fill="#d0bfff" stroke="#1971c2" stroke-width="2"  opacity="1.0"/>
<text x="430.0" y="520.25" text-anchor="middle" font-size="14" fill="#1e1e1e" opacity="1.0"><tspan x="430.0" y="520.25">8a. Generate PDF (Queue)</tspan></text>
<rect x="330" y="580" width="200" height="70" rx="8" ry="8" fill="#d0bfff" stroke="#1971c2" stroke-width="2"  opacity="1.0"/>
<text x="430.0" y="620.25" text-anchor="middle" font-size="14" fill="#1e1e1e" opacity="1.0"><tspan x="430.0" y="620.25">8b. Simpan PDF + No Sertifikat</tspan></text>
<rect x="640" y="230" width="200" height="70" rx="8" ry="8" fill="#ffd8a8" stroke="#1971c2" stroke-width="2"  opacity="1.0"/>
<text x="740.0" y="270.25" text-anchor="middle" font-size="14" fill="#1e1e1e" opacity="1.0"><tspan x="740.0" y="270.25">6. Review Pengajuan</tspan></text>
<polygon points="740.0,330 820,375.0 740.0,420 660,375.0" fill="#fff3bf" stroke="#1e1e1e" stroke-width="2"  opacity="1.0"/>
<text x="740.0" y="381.0" text-anchor="middle" font-size="16" fill="#1e1e1e" opacity="1.0"><tspan x="740.0" y="381.0">Approve?</tspan></text>
<rect x="640" y="480" width="200" height="70" rx="8" ry="8" fill="#b2f2bb" stroke="#1971c2" stroke-width="2"  opacity="1.0"/>
<text x="740.0" y="520.25" text-anchor="middle" font-size="14" fill="#1e1e1e" opacity="1.0"><tspan x="740.0" y="520.25">7. Setujui</tspan></text>
<rect x="640" y="600" width="200" height="70" rx="8" ry="8" fill="#ffc9c9" stroke="#1971c2" stroke-width="2"  opacity="1.0"/>
<text x="740.0" y="640.25" text-anchor="middle" font-size="14" fill="#1e1e1e" opacity="1.0"><tspan x="740.0" y="640.25">7b. Tolak + Alasan</tspan></text>
<rect x="950" y="580" width="220" height="70" rx="8" ry="8" fill="#c3fae8" stroke="#1971c2" stroke-width="2"  opacity="1.0"/>
<text x="1060.0" y="620.25" text-anchor="middle" font-size="14" fill="#1e1e1e" opacity="1.0"><tspan x="1060.0" y="620.25">9. Terima Link/QR</tspan></text>
<rect x="950" y="680" width="220" height="70" rx="8" ry="8" fill="#c3fae8" stroke="#1971c2" stroke-width="2"  opacity="1.0"/>
<text x="1060.0" y="720.25" text-anchor="middle" font-size="14" fill="#1e1e1e" opacity="1.0"><tspan x="1060.0" y="720.25">10. Unduh Sertifikat</tspan></text>
<rect x="950" y="130" width="220" height="70" rx="8" ry="8" fill="#d0bfff" stroke="#1971c2" stroke-width="2"  opacity="1.0"/>
<text x="1060.0" y="170.25" text-anchor="middle" font-size="14" fill="#1e1e1e" opacity="1.0"><tspan x="1060.0" y="170.25">Verifikasi Publik (QR/Link)</tspan></text>
<path d="M 240 165 L 330 165" fill="none" stroke="#1e1e1e" stroke-width="2"  opacity="1.0" marker-end="url(#arrowhead-end)"/>
<path d="M 130 200 L 130 230" fill="none" stroke="#1e1e1e" stroke-width="2"  opacity="1.0" marker-end="url(#arrowhead-end)"/>
<path d="M 130 300 L 130 330" fill="none" stroke="#1e1e1e" stroke-width="2"  opacity="1.0" marker-end="url(#arrowhead-end)"/>
<path d="M 240 365 L 330 365" fill="none" stroke="#1e1e1e" stroke-width="2"  opacity="1.0" marker-end="url(#arrowhead-end)"/>
<path d="M 530 265 L 640 265" fill="none" stroke="#1e1e1e" stroke-width="2"  opacity="1.0" marker-end="url(#arrowhead-end)"/>
<path d="M 740 300 L 740 330" fill="none" stroke="#1e1e1e" stroke-width="2"  opacity="1.0" marker-end="url(#arrowhead-end)"/>
<path d="M 740 420 L 740 480" fill="none" stroke="#1e1e1e" stroke-width="2"  opacity="1.0" marker-end="url(#arrowhead-end)"/>
<text x="740.0" y="455.25" text-anchor="middle" font-size="14" fill="#1e1e1e" opacity="1.0"><tspan x="740.0" y="455.25">Ya</tspan></text>
<path d="M 660 375 L 640 600" fill="none" stroke="#1e1e1e" stroke-width="2"  opacity="1.0" marker-end="url(#arrowhead-end)"/>
<text x="650.0" y="492.75" text-anchor="middle" font-size="14" fill="#1e1e1e" opacity="1.0"><tspan x="650.0" y="492.75">Tidak</tspan></text>
<path d="M 740 550 L 530 615" fill="none" stroke="#1e1e1e" stroke-width="2"  opacity="1.0" marker-end="url(#arrowhead-end)"/>
<path d="M 430 550 L 430 580" fill="none" stroke="#1e1e1e" stroke-width="2"  opacity="1.0" marker-end="url(#arrowhead-end)"/>
<path d="M 530 615 L 950 615" fill="none" stroke="#1e1e1e" stroke-width="2"  opacity="1.0" marker-end="url(#arrowhead-end)"/>
<text x="740.0" y="620.25" text-anchor="middle" font-size="14" fill="#1e1e1e" opacity="1.0"><tspan x="740.0" y="620.25">Email link</tspan></text>
<path d="M 1060 650 L 1060 680" fill="none" stroke="#1e1e1e" stroke-width="2"  opacity="1.0" marker-end="url(#arrowhead-end)"/>
<path d="M 840 375 L 950 165" fill="none" stroke="#1e1e1e" stroke-width="2"  opacity="1.0" marker-end="url(#arrowhead-end)"/>
<text x="20" y="474" text-anchor="start" font-size="14" fill="#1e1e1e" font-weight="600" opacity="1.0">Conditional:</text>
<text x="20" y="492" text-anchor="start" font-size="12" fill="#1e1e1e" font-weight="600" opacity="1.0">- Field SKP: tampil jika jenis=Pelatihan</text>
<text x="20" y="510" text-anchor="start" font-size="12" fill="#1e1e1e" font-weight="600" opacity="1.0">- QR Code: tampil jika verifikasi diaktifkan</text>
</svg>