<svg xmlns="http://www.w3.org/2000/svg" viewBox="-10 -10 1200 920" width="1200" height="920" font-family="Virgil, Segoe UI Emoji, sans-serif">
<defs>
  <marker id="arrowhead-end" markerWidth="10" markerHeight="10" refX="9" refY="3" orient="auto" markerUnits="strokeWidth">
    <path d="M0,0 L0,6 L9,3 z" fill="#1e1e1e"/>
  </marker>
  <marker id="arrowhead-start" markerWidth="10" markerHeight="10" refX="1" refY="3" orient="auto" markerUnits="strokeWidth">
    <path d="M9,0 L9,6 L0,3 z" fill="#1e1e1e"/>
  </marker>
</defs>
<rect x="-10" y="-10" width="1200" height="920" fill="#ffffff"/>
<text x="360" y="44" text-anchor="start" font-size="24" fill="#1e1e1e" font-weight="600" opacity="1.0">Wireframe — Halaman Publik (Landing, Unduh, Verifikasi)</text>
<text x="40" y="90" text-anchor="start" font-size="20" fill="#1971c2" font-weight="600" opacity="1.0">1. Landing Page (/)</text>
<rect x="20" y="100" width="380" height="780" rx="8" ry="8" fill="#f8f9fa" stroke="#dee2e6" stroke-width="1"  opacity="1.0"/>
<rect x="20" y="100" width="380" height="40" rx="8" ry="8" fill="#1971c2" stroke="#1971c2" stroke-width="1"  opacity="1.0"/>
<text x="35" y="123" text-anchor="start" font-size="13" fill="#ffffff" font-weight="600" opacity="1.0">FIK UI — Sertifikat Online</text>
<text x="290" y="121" text-anchor="start" font-size="11" fill="#ffffff" font-weight="600" opacity="1.0">Verifikasi | Login Admin</text>
<rect x="20" y="140" width="380" height="200" rx="8" ry="8" fill="#1864ab" stroke="#1864ab" stroke-width="1"  opacity="1.0"/>
<text x="35" y="187" text-anchor="start" font-size="22" fill="#ffffff" font-weight="600" opacity="1.0">Sistem Penerbitan</text>
<text x="35" y="217" text-anchor="start" font-size="22" fill="#ffffff" font-weight="600" opacity="1.0">Sertifikat Online</text>
<text x="35" y="244" text-anchor="start" font-size="14" fill="#d0bfff" font-weight="600" opacity="1.0">FIK Universitas Indonesia</text>
<text x="35" y="272" text-anchor="start" font-size="12" fill="#ffffff" font-weight="600" opacity="1.0">Ajukan, verifikasi, dan unduh sertifikat</text>
<text x="35" y="292" text-anchor="start" font-size="12" fill="#ffffff" font-weight="600" opacity="1.0">dengan mudah &amp; aman.</text>
<rect x="35" y="305" width="140" height="30" rx="8" ry="8" fill="#ffd43b" stroke="#fab005" stroke-width="2"  opacity="1.0"/>
<text x="45" y="325.25" text-anchor="start" font-size="14" fill="#1e1e1e" opacity="1.0"><tspan x="45" y="325.25">Ajukan Sekarang</tspan></text>
<rect x="190" y="305" width="130" height="30" rx="8" ry="8" fill="#ffffff" stroke="#ffffff" stroke-width="2"  opacity="1.0"/>
<text x="200" y="325.25" text-anchor="start" font-size="14" fill="#1971c2" opacity="1.0"><tspan x="200" y="325.25">Verifikasi</tspan></text>
<text x="40" y="374" text-anchor="start" font-size="14" fill="#1e1e1e" font-weight="600" opacity="1.0">Mengapa Sistem Ini?</text>
<rect x="40" y="385" width="340" height="50" rx="8" ry="8" fill="#ffffff" stroke="#dee2e6" stroke-width="1"  opacity="1.0"/>
<text x="55" y="411" text-anchor="start" font-size="18" fill="#1971c2" font-weight="600" opacity="1.0">⚡</text>
<text x="95" y="406" text-anchor="start" font-size="13" fill="#1e1e1e" font-weight="600" opacity="1.0">Cepat</text>
<text x="95" y="423" text-anchor="start" font-size="10" fill="#868e96" font-weight="600" opacity="1.0">Generate sertifikat massal via queue</text>
<rect x="40" y="440" width="340" height="50" rx="8" ry="8" fill="#ffffff" stroke="#dee2e6" stroke-width="1"  opacity="1.0"/>
<text x="55" y="466" text-anchor="start" font-size="18" fill="#1971c2" font-weight="600" opacity="1.0">🔒</text>
<text x="95" y="461" text-anchor="start" font-size="13" fill="#1e1e1e" font-weight="600" opacity="1.0">Aman</text>
<text x="95" y="478" text-anchor="start" font-size="10" fill="#868e96" font-weight="600" opacity="1.0">QR code verifikasi keaslian</text>
<rect x="40" y="495" width="340" height="50" rx="8" ry="8" fill="#ffffff" stroke="#dee2e6" stroke-width="1"  opacity="1.0"/>
<text x="55" y="521" text-anchor="start" font-size="18" fill="#1971c2" font-weight="600" opacity="1.0">✓</text>
<text x="95" y="516" text-anchor="start" font-size="13" fill="#1e1e1e" font-weight="600" opacity="1.0">Valid</text>
<text x="95" y="533" text-anchor="start" font-size="10" fill="#868e96" font-weight="600" opacity="1.0">Tanda tangan digital Dekan/Kaprodi</text>
<rect x="40" y="550" width="340" height="50" rx="8" ry="8" fill="#ffffff" stroke="#dee2e6" stroke-width="1"  opacity="1.0"/>
<text x="55" y="576" text-anchor="start" font-size="18" fill="#1971c2" font-weight="600" opacity="1.0">📥</text>
<text x="95" y="571" text-anchor="start" font-size="13" fill="#1e1e1e" font-weight="600" opacity="1.0">Mudah</text>
<text x="95" y="588" text-anchor="start" font-size="10" fill="#868e96" font-weight="600" opacity="1.0">Unduh via nomor sertifikat</text>
<text x="40" y="634" text-anchor="start" font-size="14" fill="#1e1e1e" font-weight="600" opacity="1.0">Cara Kerja</text>
<rect x="40" y="645" width="340" height="30" rx="8" ry="8" fill="#e7f5ff" stroke="#1971c2" stroke-width="1"  opacity="1.0"/>
<text x="50" y="664.125" text-anchor="start" font-size="11" fill="#1e1e1e" opacity="1.0"><tspan x="50" y="664.125">1. Pengaju isi form online</tspan></text>
<rect x="40" y="680" width="340" height="30" rx="8" ry="8" fill="#e7f5ff" stroke="#1971c2" stroke-width="1"  opacity="1.0"/>
<text x="50" y="699.125" text-anchor="start" font-size="11" fill="#1e1e1e" opacity="1.0"><tspan x="50" y="699.125">2. Admin review &amp; setujui</tspan></text>
<rect x="40" y="715" width="340" height="30" rx="8" ry="8" fill="#e7f5ff" stroke="#1971c2" stroke-width="1"  opacity="1.0"/>
<text x="50" y="734.125" text-anchor="start" font-size="11" fill="#1e1e1e" opacity="1.0"><tspan x="50" y="734.125">3. Sertifikat di-generate otomatis</tspan></text>
<rect x="40" y="750" width="340" height="30" rx="8" ry="8" fill="#e7f5ff" stroke="#1971c2" stroke-width="1"  opacity="1.0"/>
<text x="50" y="769.125" text-anchor="start" font-size="11" fill="#1e1e1e" opacity="1.0"><tspan x="50" y="769.125">4. Peserta unduh via link</tspan></text>
<rect x="20" y="800" width="380" height="80" rx="8" ry="8" fill="#343a40" stroke="#343a40" stroke-width="1"  opacity="1.0"/>
<text x="35" y="827" text-anchor="start" font-size="12" fill="#ffffff" font-weight="600" opacity="1.0">FIK Universitas Indonesia</text>
<text x="35" y="845" text-anchor="start" font-size="10" fill="#adb5bd" font-weight="600" opacity="1.0">Kontak: sertifikat@fik.ui.ac.id</text>
<text x="35" y="865" text-anchor="start" font-size="10" fill="#adb5bd" font-weight="600" opacity="1.0">© 2026 FIK UI. All rights reserved.</text>
<text x="420" y="90" text-anchor="start" font-size="20" fill="#1971c2" font-weight="600" opacity="1.0">2. Unduh Sertifikat (/unduh)</text>
<rect x="400" y="100" width="380" height="780" rx="8" ry="8" fill="#f8f9fa" stroke="#dee2e6" stroke-width="1"  opacity="1.0"/>
<rect x="400" y="100" width="380" height="40" rx="8" ry="8" fill="#1971c2" stroke="#1971c2" stroke-width="1"  opacity="1.0"/>
<text x="415" y="123" text-anchor="start" font-size="13" fill="#ffffff" font-weight="600" opacity="1.0">FIK UI — Unduh Sertifikat</text>
<rect x="420" y="170" width="340" height="90" rx="8" ry="8" fill="#ffffff" stroke="#1971c2" stroke-width="2"  opacity="1.0"/>
<text x="435" y="195" text-anchor="start" font-size="15" fill="#1971c2" font-weight="600" opacity="1.0">Unduh Sertifikat Anda</text>
<text x="435" y="216" text-anchor="start" font-size="11" fill="#495057" font-weight="600" opacity="1.0">Masukkan nomor sertifikat yang</text>
<text x="435" y="233" text-anchor="start" font-size="11" fill="#495057" font-weight="600" opacity="1.0">tertera di email/notifikasi Anda</text>
<rect x="435" y="260" width="310" height="38" rx="8" ry="8" fill="#ffffff" stroke="#868e96" stroke-width="1"  opacity="1.0"/>
<text x="435" y="252" text-anchor="start" font-size="12" fill="#495057" font-weight="600" opacity="1.0">Nomor Sertifikat *</text>
<text x="445" y="283.0" text-anchor="start" font-size="12" fill="#adb5bd" font-weight="600" opacity="1.0">Contoh: FIK/EV/2026/0001</text>
<rect x="435" y="320" width="310" height="38" rx="8" ry="8" fill="#1971c2" stroke="#1864ab" stroke-width="2"  opacity="1.0"/>
<text x="445" y="344.25" text-anchor="start" font-size="14" fill="#ffffff" opacity="1.0"><tspan x="445" y="344.25">Cari &amp; Tampilkan</tspan></text>
<rect x="420" y="400" width="340" height="280" rx="8" ry="8" fill="#ffffff" stroke="#dee2e6" stroke-width="1"  opacity="1.0"/>
<text x="435" y="424" text-anchor="start" font-size="12" fill="#495057" font-weight="600" opacity="1.0">Hasil Pencarian:</text>
<rect x="435" y="430" width="310" height="130" rx="8" ry="8" fill="#f8f9fa" stroke="#adb5bd" stroke-width="1"  opacity="1.0"/>
<text x="450" y="452" text-anchor="start" font-size="12" fill="#1971c2" font-weight="600" opacity="1.0">FIK/EV/2026/0001</text>
<text x="450" y="471" text-anchor="start" font-size="11" fill="#1e1e1e" font-weight="600" opacity="1.0">Workshop Laravel 11 — 2026</text>
<text x="450" y="490" text-anchor="start" font-size="10" fill="#495057" font-weight="600" opacity="1.0">Pemilik: Andi Wijaya</text>
<text x="450" y="505" text-anchor="start" font-size="10" fill="#495057" font-weight="600" opacity="1.0">NIM: 2106123456</text>
<text x="450" y="520" text-anchor="start" font-size="10" fill="#2f9e44" font-weight="600" opacity="1.0">Status: ✓ Aktif</text>
<text x="450" y="540" text-anchor="start" font-size="10" fill="#495057" font-weight="600" opacity="1.0">Diterbitkan: 17 Juli 2026</text>
<rect x="435" y="575" width="150" height="36" rx="8" ry="8" fill="#2f9e44" stroke="#2b8a3e" stroke-width="2"  opacity="1.0"/>
<text x="445" y="598.25" text-anchor="start" font-size="14" fill="#ffffff" opacity="1.0"><tspan x="445" y="598.25">Unduh PDF</tspan></text>
<rect x="595" y="575" width="150" height="36" rx="8" ry="8" fill="#7048e8" stroke="#6741d9" stroke-width="2"  opacity="1.0"/>
<text x="605" y="598.25" text-anchor="start" font-size="14" fill="#ffffff" opacity="1.0"><tspan x="605" y="598.25">Verifikasi</tspan></text>
<text x="435" y="636" text-anchor="start" font-size="11" fill="#495057" font-weight="600" opacity="1.0">Atau pindai QR Code:</text>
<rect x="435" y="650" width="80" height="80" rx="0" ry="0" fill="#000000" stroke="#000000" stroke-width="1"  opacity="1.0"/>
<rect x="461" y="715" width="6" height="6" rx="0" ry="0" fill="#ffffff" stroke="#ffffff" stroke-width="1"  opacity="1.0"/>
<rect x="496" y="671" width="8" height="8" rx="0" ry="0" fill="#ffffff" stroke="#ffffff" stroke-width="1"  opacity="1.0"/>
<rect x="470" y="702" width="5" height="5" rx="0" ry="0" fill="#ffffff" stroke="#ffffff" stroke-width="1"  opacity="1.0"/>
<rect x="475" y="706" width="5" height="5" rx="0" ry="0" fill="#ffffff" stroke="#ffffff" stroke-width="1"  opacity="1.0"/>
<rect x="497" y="688" width="3" height="3" rx="0" ry="0" fill="#ffffff" stroke="#ffffff" stroke-width="1"  opacity="1.0"/>
<rect x="500" y="685" width="3" height="3" rx="0" ry="0" fill="#ffffff" stroke="#ffffff" stroke-width="1"  opacity="1.0"/>
<rect x="503" y="718" width="7" height="7" rx="0" ry="0" fill="#ffffff" stroke="#ffffff" stroke-width="1"  opacity="1.0"/>
<rect x="464" y="679" width="3" height="3" rx="0" ry="0" fill="#ffffff" stroke="#ffffff" stroke-width="1"  opacity="1.0"/>
<rect x="504" y="710" width="3" height="3" rx="0" ry="0" fill="#ffffff" stroke="#ffffff" stroke-width="1"  opacity="1.0"/>
<rect x="467" y="682" width="4" height="4" rx="0" ry="0" fill="#ffffff" stroke="#ffffff" stroke-width="1"  opacity="1.0"/>
<rect x="468" y="692" width="3" height="3" rx="0" ry="0" fill="#ffffff" stroke="#ffffff" stroke-width="1"  opacity="1.0"/>
<rect x="463" y="705" width="3" height="3" rx="0" ry="0" fill="#ffffff" stroke="#ffffff" stroke-width="1"  opacity="1.0"/>
<rect x="454" y="694" width="6" height="6" rx="0" ry="0" fill="#ffffff" stroke="#ffffff" stroke-width="1"  opacity="1.0"/>
<rect x="464" y="705" width="8" height="8" rx="0" ry="0" fill="#ffffff" stroke="#ffffff" stroke-width="1"  opacity="1.0"/>
<rect x="460" y="699" width="8" height="8" rx="0" ry="0" fill="#ffffff" stroke="#ffffff" stroke-width="1"  opacity="1.0"/>
<text x="525" y="676" text-anchor="start" font-size="11" fill="#495057" font-weight="600" opacity="1.0">Arahkan kamera ke QR Code</text>
<text x="525" y="696" text-anchor="start" font-size="11" fill="#495057" font-weight="600" opacity="1.0">untuk verifikasi cepat</text>
<text x="525" y="716" text-anchor="start" font-size="11" fill="#495057" font-weight="600" opacity="1.0">Tanpa perlu ketik nomor</text>
<rect x="420" y="750" width="340" height="80" rx="8" ry="8" fill="#fff3bf" stroke="#fab005" stroke-width="1"  opacity="1.0"/>
<text x="435" y="773" text-anchor="start" font-size="11" fill="#7a5c00" font-weight="600" opacity="1.0">Bantuan:</text>
<text x="435" y="792" text-anchor="start" font-size="10" fill="#7a5c00" font-weight="600" opacity="1.0">• Nomor sertifikat ada di email notifikasi</text>
<text x="435" y="810" text-anchor="start" font-size="10" fill="#7a5c00" font-weight="600" opacity="1.0">• Atau scan QR di sertifikat fisik Anda</text>
<text x="435" y="828" text-anchor="start" font-size="10" fill="#7a5c00" font-weight="600" opacity="1.0">• Hubungi: sertifikat@fik.ui.ac.id</text>
<text x="800" y="90" text-anchor="start" font-size="20" fill="#1971c2" font-weight="600" opacity="1.0">3. Verifikasi Publik (/verifikasi/{id})</text>
<rect x="780" y="100" width="380" height="780" rx="8" ry="8" fill="#f8f9fa" stroke="#dee2e6" stroke-width="1"  opacity="1.0"/>
<rect x="780" y="100" width="380" height="40" rx="8" ry="8" fill="#1971c2" stroke="#1971c2" stroke-width="1"  opacity="1.0"/>
<text x="795" y="123" text-anchor="start" font-size="13" fill="#ffffff" font-weight="600" opacity="1.0">FIK UI — Verifikasi Sertifikat</text>
<rect x="800" y="170" width="340" height="120" rx="8" ry="8" fill="#d3f9d8" stroke="#2f9e44" stroke-width="2"  opacity="1.0"/>
<text x="880" y="242" text-anchor="start" font-size="42" fill="#2f9e44" font-weight="600" opacity="1.0">✓</text>
<text x="815" y="278" text-anchor="start" font-size="18" fill="#2b8a3e" font-weight="600" opacity="1.0">Sertifikat VALID</text>
<text x="815" y="301" text-anchor="start" font-size="11" fill="#2b8a3e" font-weight="600" opacity="1.0">Diterbitkan oleh FIK UI</text>
<text x="800" y="334" text-anchor="start" font-size="14" fill="#1e1e1e" font-weight="600" opacity="1.0">Informasi Sertifikat</text>
<rect x="800" y="345" width="340" height="250" rx="8" ry="8" fill="#ffffff" stroke="#dee2e6" stroke-width="1"  opacity="1.0"/>
<text x="815" y="366" text-anchor="start" font-size="11" fill="#495057" font-weight="600" opacity="1.0">Nomor Sertifikat:</text>
<text x="960" y="366" text-anchor="start" font-size="11" fill="#1e1e1e" font-weight="600" opacity="1.0">FIK/EV/2026/0001</text>
<text x="815" y="390" text-anchor="start" font-size="11" fill="#495057" font-weight="600" opacity="1.0">Nama Pemilik:</text>
<text x="960" y="390" text-anchor="start" font-size="11" fill="#1e1e1e" font-weight="600" opacity="1.0">Andi Wijaya</text>
<text x="815" y="414" text-anchor="start" font-size="11" fill="#495057" font-weight="600" opacity="1.0">NIM / NIP:</text>
<text x="960" y="414" text-anchor="start" font-size="11" fill="#1e1e1e" font-weight="600" opacity="1.0">2106123456</text>
<text x="815" y="438" text-anchor="start" font-size="11" fill="#495057" font-weight="600" opacity="1.0">Nama Acara:</text>
<text x="960" y="438" text-anchor="start" font-size="11" fill="#1e1e1e" font-weight="600" opacity="1.0">Workshop Laravel 11 — 2026</text>
<text x="815" y="462" text-anchor="start" font-size="11" fill="#495057" font-weight="600" opacity="1.0">Tanggal Acara:</text>
<text x="960" y="462" text-anchor="start" font-size="11" fill="#1e1e1e" font-weight="600" opacity="1.0">15-17 Juli 2026</text>
<text x="815" y="486" text-anchor="start" font-size="11" fill="#495057" font-weight="600" opacity="1.0">Lokasi:</text>
<text x="960" y="486" text-anchor="start" font-size="11" fill="#1e1e1e" font-weight="600" opacity="1.0">Aula FIK UI Lt. 3</text>
<text x="815" y="510" text-anchor="start" font-size="11" fill="#495057" font-weight="600" opacity="1.0">Tanggal Terbit:</text>
<text x="960" y="510" text-anchor="start" font-size="11" fill="#1e1e1e" font-weight="600" opacity="1.0">17 Juli 2026</text>
<text x="815" y="534" text-anchor="start" font-size="11" fill="#495057" font-weight="600" opacity="1.0">Penerbit:</text>
<text x="960" y="534" text-anchor="start" font-size="11" fill="#1e1e1e" font-weight="600" opacity="1.0">FIK Universitas Indonesia</text>
<text x="815" y="558" text-anchor="start" font-size="11" fill="#495057" font-weight="600" opacity="1.0">SKP:</text>
<text x="960" y="558" text-anchor="start" font-size="11" fill="#1e1e1e" font-weight="600" opacity="1.0">4 poin</text>
<text x="815" y="582" text-anchor="start" font-size="11" fill="#495057" font-weight="600" opacity="1.0">Status:</text>
<text x="960" y="582" text-anchor="start" font-size="11" fill="#1e1e1e" font-weight="600" opacity="1.0">Aktif — Tidak Dicabut</text>
<text x="800" y="629" text-anchor="start" font-size="14" fill="#1e1e1e" font-weight="600" opacity="1.0">Tindakan</text>
<rect x="800" y="640" width="160" height="36" rx="8" ry="8" fill="#1971c2" stroke="#1864ab" stroke-width="2"  opacity="1.0"/>
<text x="810" y="663.25" text-anchor="start" font-size="14" fill="#ffffff" opacity="1.0"><tspan x="810" y="663.25">Unduh PDF</tspan></text>
<rect x="975" y="640" width="165" height="36" rx="8" ry="8" fill="#7048e8" stroke="#6741d9" stroke-width="2"  opacity="1.0"/>
<text x="985" y="663.25" text-anchor="start" font-size="14" fill="#ffffff" opacity="1.0"><tspan x="985" y="663.25">Bagikan Link</tspan></text>
<rect x="800" y="690" width="340" height="36" rx="8" ry="8" fill="#ffffff" stroke="#c92a2a" stroke-width="2"  opacity="1.0"/>
<text x="810" y="713.25" text-anchor="start" font-size="14" fill="#c92a2a" opacity="1.0"><tspan x="810" y="713.25">Laporkan Pencabutan</tspan></text>
<rect x="780" y="800" width="380" height="80" rx="8" ry="8" fill="#343a40" stroke="#343a40" stroke-width="1"  opacity="1.0"/>
<text x="795" y="825" text-anchor="start" font-size="10" fill="#adb5bd" font-weight="600" opacity="1.0">Verifikasi ini dihasilkan otomatis oleh</text>
<text x="795" y="842" text-anchor="start" font-size="10" fill="#adb5bd" font-weight="600" opacity="1.0">sistem resmi FIK UI.</text>
<text x="795" y="865" text-anchor="start" font-size="10" fill="#adb5bd" font-weight="600" opacity="1.0">Pertanyaan: sertifikat@fik.ui.ac.id</text>
</svg>